<svg xmlns="http://www.w3.org/2000/svg" xmlns:xlink="http://www.w3.org/1999/xlink" viewBox="0 0 140.23 140.23"><defs><style>.cls-1{fill:url(#Dégradé_sans_nom_12);}.cls-2{fill:none;stroke-miterlimit:10;stroke-width:5px;stroke:url(#Dégradé_sans_nom_12-2);}</style><linearGradient id="Dégradé_sans_nom_12" x1="52.17" y1="70.11" x2="88.06" y2="70.11" gradientUnits="userSpaceOnUse"><stop offset="0" stop-color="#241f41"/><stop offset="0.99" stop-color="#662d91"/></linearGradient><linearGradient id="Dégradé_sans_nom_12-2" x1="0" y1="70.11" x2="140.23" y2="70.11" xlink:href="#Dégradé_sans_nom_12"/></defs><g id="Calque_2" data-name="Calque 2"><g id="Calque_1-2" data-name="Calque 1"><path class="cls-1" d="M62.75,60.8c0-2.9-.07-5.68,0-8.44a29.66,29.66,0,0,1,.57-5.5A13.84,13.84,0,0,1,76.79,35.72c3.5-.12,7,.2,10.53.3.54,0,.74.23.74.79,0,3.2,0,6.41,0,9.61,0,.56-.19.81-.75.75-.22,0-.43,0-.65,0-1.79,0-3.57,0-5.36,0-4.21,0-5.78,1.65-5.79,5.88,0,2.54,0,5.09,0,7.75h12.1C87.08,65,86.57,69,86,73.1H75.51v1.2c0,9.71,0,19.41,0,29.12,0,.9-.27,1.13-1.14,1.11q-5.33-.06-10.63,0c-.84,0-1-.25-1-1,0-9.67,0-19.35,0-29V73.12h-1c-2.87,0-5.73,0-8.6,0-.75,0-.93-.25-.92-1,0-3.49,0-7,0-10.45,0-.81.3-1,1-1,2.81,0,5.61,0,8.41,0Z"/><circle class="cls-2" cx="70.11" cy="70.11" r="67.61"/></g></g></svg>